<svg xmlns="http://www.w3.org/2000/svg" viewBox="0 0 24 24" fill="none" stroke="currentColor" stroke-linecap="round" stroke-linejoin="round">
  <!-- Professional CAN bus icon (theme adaptive) -->
  <!-- Outer chip silhouette -->
  <rect x="3.5" y="4" width="17" height="16" rx="2.8" stroke-width="1.5"/>
  <!-- Chip pins (simplified) -->
  <path d="M6 3v2M9 3v2M12 3v2M15 3v2M6 20v-2M9 20v-2M12 20v-2M15 20v-2" stroke-width="1.2"/>
  <!-- CAN differential pair waveform stylization inside chip -->
  <!-- High line (CAN_H) -->
  <path d="M6.2 10.5h2.2l1-2.2 1.6 4.4 1.2-2.2h2.2" stroke-width="1.3"/>
  <!-- Low line (CAN_L) mirrored rhythm -->
  <path d="M6.2 13.5h2.2l1 2.2 1.6-4.4 1.2 2.2h2.2" stroke-width="1.3"/>
  <!-- Bus trunk outside chip with three nodes (classic CAN topology) -->
  <path d="M2.5 12h5m9 0h5" stroke-width="1.5"/>
  <circle cx="9.5" cy="12" r="1.2" stroke-width="1.4"/>
  <circle cx="14.5" cy="12" r="1.2" stroke-width="1.4"/>
  <!-- Subtle balance outline (reduced opacity) -->
  <rect x="1.2" y="1.2" width="21.6" height="21.6" rx="4" stroke-width="1.2" opacity="0.15"/>
  <!-- Notes:
       - Uses only strokes + circles so it scales crisply at 16px.
       - currentColor ensures automatic light/dark/high-contrast adaptation.
       - Dual zig-zag lines suggest differential signaling; outer trunk + nodes reinforce bus topology. -->
</svg>
