<svg xmlns="http://www.w3.org/2000/svg" viewBox="0 0 96 96">
  <!-- Background plate -->
  <rect x="4" y="4" width="88" height="88" rx="18" ry="18" fill="#0d1b27" stroke="#1e3a4f" stroke-width="4"/>
  <!-- Circular dial representing a gauge -->
  <circle cx="48" cy="50" r="26" fill="#071019" stroke="#1f4d63" stroke-width="4"/>
  <!-- Tick marks (simplified) -->
  <g stroke="#2e6f88" stroke-linecap="round" stroke-width="3">
    <line x1="48" y1="24" x2="48" y2="18"/>
    <line x1="68" y1="30" x2="72" y2="24"/>
    <line x1="76" y1="50" x2="82" y2="50"/>
    <line x1="68" y1="70" x2="72" y2="76"/>
    <line x1="48" y1="76" x2="48" y2="82"/>
    <line x1="28" y1="70" x2="24" y2="76"/>
    <line x1="20" y1="50" x2="14" y2="50"/>
    <line x1="28" y1="30" x2="24" y2="24"/>
  </g>
  <!-- Needle -->
  <g transform="rotate(-35 48 50)">
    <circle cx="48" cy="50" r="4" fill="#103a4a" stroke="#55c1ff" stroke-width="2"/>
    <rect x="46.5" y="26" width="3" height="26" rx="1.5" fill="#55c1ff"/>
  </g>
  <!-- CAN bus waveform stylized line -->
  <path d="M16 20 h12 v12 h12 V20 h12 v12 h12 V20 h12" stroke="#55c1ff" stroke-width="4" fill="none" stroke-linejoin="round" stroke-linecap="round"/>
  <!-- Title letters minimal C A N -->
  <g fill="#55c1ff" font-family="Inter,Arial,sans-serif" font-weight="600" font-size="14">
    <text x="18" y="90">CAN</text>
  </g>
</svg>
